<?xml version="1.0" encoding="utf-8"?>
<!-- Generator: Adobe Illustrator 27.5.0, SVG Export Plug-In . SVG Version: 6.00 Build 0)  -->
<svg version="1.1" id="Ñëîé_1" xmlns="http://www.w3.org/2000/svg" xmlns:xlink="http://www.w3.org/1999/xlink" x="0px" y="0px"
	 viewBox="0 0 2600 2000" style="enable-background:new 0 0 2600 2000;" xml:space="preserve">
<g>
	<rect id="_x31_1" style="fill:#B0D0F7;" width="2600" height="2000"/>
	<polygon id="_x31_0" style="fill:#A3BCEF;" points="2580.512,508.462 2580.512,1298.265 8.866,1298.265 8.866,584.782 
		167.222,584.782 167.222,726.633 264.6,726.633 264.6,841.353 297.557,841.353 297.557,432.371 355.014,432.371 355.014,389.021 
		373.164,389.021 373.164,351.981 383.836,351.981 383.836,283.491 393.599,283.491 393.599,351.981 404.281,351.981 
		404.281,389.021 422.431,389.021 422.431,432.371 479.888,432.371 479.888,841.353 643.961,841.353 645.781,614.032 
		714.583,614.032 714.583,509.252 820.071,509.252 820.071,614.032 886.332,614.032 885.946,769.603 1009.673,769.603 
		1009.673,694.883 1137.594,694.883 1137.594,769.603 1212.203,769.603 1212.203,391.301 1269.66,391.301 1269.66,347.951 
		1287.81,347.951 1287.81,310.911 1298.492,310.911 1298.492,242.42 1308.245,242.42 1308.245,310.911 1318.937,310.911 
		1318.937,347.951 1337.087,347.951 1337.087,391.301 1394.534,391.301 1394.534,769.603 1558.597,769.603 1558.597,494.452 
		1745.489,494.452 1745.489,647.932 1908.019,647.932 1908.019,452.631 1982.142,452.631 1982.142,403.631 2000.302,403.631 
		2000.302,366.621 2010.965,366.621 2010.965,298.111 2020.727,298.111 2020.727,366.621 2031.4,366.621 2031.4,403.631 
		2049.57,403.631 2049.57,452.631 2123.693,452.631 2123.693,647.932 2252.969,647.932 2252.969,265.01 2457.438,265.01 
		2457.438,508.462 	"/>
	<g id="_x39_">
		<path style="fill:#C0DAFF;" d="M2600,348.431v949.443h-827.981c10.252-269.381,57.936-530.945,298.08-575.584
			c73.29-15.836,151.629-4.34,221.747-27.458c42.379-12.004,63.772-57.429,69.051-108.818
			C2381.858,447.149,2515.267,355.334,2600,348.431z"/>
		<path style="fill:#B0D0F7;" d="M2599.993,988.301c0,0-16.696-309.579-120.392-309.579c-156.101,0-183.126,469.249-327.329,376.377
			c-142.861-92.008-273.232-123.268-303.718,242.782l750.676,0.005L2599.993,988.301z"/>
		<path style="fill:#C0DAFF;" d="M1234.251,1212.48c-2.387,29.945-7.462,59.409-15.456,87.425H0V517.089v-1.472
			c5.634-2.741,100.804-44.283,168.41,62.555c76.359,118.817,202.586-161.476,347.819-10.278
			c57.125,56.871,35.706,130.541,81.943,176.347c26.57,28.423,69.153,33.168,101.23,16.546
			c50.349-21.697,99.453-69.813,158.683-42.507c42.051,19.617,65.804,47.532,79.533,85.42
			c28.017,63.976-6.623,154.446,50.476,197.563c40.045,24.464,96.737,13.298,142.568,21.19
			C1227.856,1031.108,1240.596,1140.561,1234.251,1212.48z"/>
		<path style="fill:#B0D0F7;" d="M881.869,1210.696c0.931,23.433-6.754,73.492-11.868,89.215H0V700.522
			c5.903-6.95,83.235-24.503,120.224,47.812c58.015,95.046,147.921-139.792,259.13,5.842
			c32.05,49.955,16.785,126.003,81.024,140.501c50.04,8.685,92.711-61.936,145.534-42.105
			c79.175,30.593,71.188,120.679,76.427,175.089C705.48,1155.265,881.189,996.371,881.869,1210.696z"/>
		<path style="fill:#B3CBF4;" d="M1097.243,1302.822c19.457-379.749,342.406-75.695,432.907-323.299
			c38.794-94.369,98.012-157.994,198.07-136.451c100.058,21.543,89.848,103.696,222.578,101.414
			c132.73-2.282,120.075-116.006,244.23-88.595s166.791,190.562,145.06,440.806L1097.243,1302.822z"/>
		<path style="fill:#A3BCEF;" d="M2600,983.779V1297.9l-908.046,1.98c0,0,160.562-143.23,295.187-127.445
			c67.757-2.614,147.289-20.606,210.783-46.035c56.236-20.682,93.007-49.892,127.445-90.597
			C2399.495,952.768,2516.637,889.045,2600,983.779z"/>
		<path style="fill:#A3BCEF;" d="M1451.901,1302.823C1041.368,1301.956,0,1300.208,0,1300.208v-216.105
			c21.047-103.151,95.433-136.017,199.049-41.297c43.069,31.842,86.536,81.048,147.716,69.976
			c179.084-79.043,154.561,111.822,290.19,94.388c60.759-14.23,102.008-83.958,172.272-70.621
			c34.871,7.753,72.663,42.288,105.346,52.779c38.245,15.633,70.668,22.31,107.545,25.256
			C1124.515,1226.135,1356.898,1179.038,1451.901,1302.823z"/>
	</g>
	<g id="_x38_">
		<g>
			<path style="fill:#527FBF;" d="M2520.758,968.014c-46.104-76.251-30.206-151.213-44.515-194.106
				c-14.254-42.729-39.554-101.398-86.274-101.846v-0.011c-0.09,0-0.178,0.005-0.268,0.005c-0.09,0-0.178-0.005-0.268-0.005v0.011
				c-46.72,0.448-72.021,59.117-86.274,101.846c-14.308,42.893,1.59,117.855-44.515,194.106
				c-46.05,76.16-18.967,190.761,130.789,192.424v0.008c0.09-0.001,0.178-0.003,0.268-0.004c0.09,0.001,0.178,0.003,0.268,0.004
				v-0.008C2539.726,1158.775,2566.808,1044.173,2520.758,968.014z"/>
			<path style="fill:#3B679B;" d="M2439.135,873.185c-2.329-2.33-6.101-2.33-8.43,0l-38.379,38.397v-90.01
				c0-3.294-2.668-5.965-5.961-5.965s-5.962,2.67-5.962,5.965v221.462l-29.488-29.504c-2.329-2.33-6.101-2.33-8.43,0
				c-2.329,2.33-2.329,6.104,0,8.434l37.918,37.938v263.839c0,3.294,2.669,5.964,5.962,5.964s5.961-2.67,5.961-5.964V928.45
				l46.809-46.831C2441.464,879.291,2441.464,875.515,2439.135,873.185z"/>
		</g>
		<g>
			<path style="fill:#7689D6;" d="M736.774,1000.806c-11.456-44.964,34.159-59.571,51.651-71.33
				c26.757-17.987,26.757-34.576,26.757-61.082c0-16.575,16.616-69.07,55.839-68.03c39.223-1.04,55.84,51.455,55.84,68.03
				c0,26.506,0,43.095,26.757,61.082c17.492,11.759,63.107,26.365,51.651,71.33c-13.019,51.1,29.511,70.222,24.551,109.852
				c-4.955,39.593-75.757,65.531-158.684,65.579v0.001c-0.039,0-0.077-0.001-0.115-0.001c-0.039,0-0.077,0.001-0.115,0.001v-0.001
				c-82.927-0.048-153.729-25.986-158.684-65.579C707.263,1071.027,749.792,1051.906,736.774,1000.806z"/>
			<path style="fill:#3B679B;" d="M944.139,973.257c-2.419-2.239-6.192-2.085-8.423,0.333l-58.734,63.617V892.701
				c0-3.294-2.669-5.965-5.961-5.965c-3.293,0-5.961,2.67-5.961,5.965v223.126l-68.915-68.951c-2.329-2.33-6.101-2.33-8.43,0
				c-2.329,2.33-2.329,6.104,0,8.434l77.345,77.386v181.821c0,3.294,2.669,5.965,5.961,5.965c3.293,0,5.961-2.67,5.961-5.965
				v-259.731l67.49-73.101C946.708,979.266,946.559,975.491,944.139,973.257z"/>
		</g>
		<g>
			<path style="fill:#7689D6;" d="M139.728,977.894c46.105-76.251-8.742-123.197,0-209.909
				c7.458-73.978,59.112-124.53,127.214-119.898c43.002,2.924,77.816,58.639,83.769,113.087
				c4.915,44.951,3.607,91.888,49.712,168.138c46.049,76.16,16.543,217.502-133.213,219.165v0.008
				c-0.09-0.001-0.178-0.003-0.268-0.004c-0.09,0.001-0.178,0.003-0.268,0.004v-0.008
				C118.533,1163.863,93.678,1054.053,139.728,977.894z"/>
			<path style="fill:#3B679B;" d="M314.158,1001.57c-2.329-2.33-6.101-2.33-8.43,0l-29.488,29.505V809.611
				c0-3.294-2.669-5.965-5.961-5.965c-3.293,0-5.962,2.67-5.962,5.965v90.011l-38.379-38.399c-2.329-2.33-6.101-2.33-8.43,0
				c-2.329,2.33-2.329,6.104,0,8.434l46.809,46.833v395.289c0,3.294,2.669,5.964,5.962,5.964c3.293,0,5.961-2.67,5.961-5.964
				v-263.836l37.918-37.94C316.487,1007.674,316.487,1003.897,314.158,1001.57z"/>
		</g>
		<g>
			<g>
				<path style="fill:#7689D6;" d="M1906.129,907.498c14.679-56.051-35.28-82.984-57.695-97.642
					c-34.287-22.422-52.545-45.484-65.609-97.611c-24.334-97.093-118.013-87.606-122.23,49.743
					c-3.16,102.922-92.579,97.388-76.181,192.89c16.689,63.7-37.381,66.875-24.814,125.096
					c10.508,48.678,110.521,87.23,172.549,87.23c118.27,0,203.934-37.575,211.57-96.486
					C1953.196,997.612,1889.447,971.197,1906.129,907.498z"/>
			</g>
			<path style="fill:#3B679B;" d="M1788.92,873.185c-2.329-2.33-6.101-2.33-8.43,0l-38.379,38.397v-90.01
				c0-3.294-2.669-5.965-5.962-5.965c-3.293,0-5.961,2.67-5.961,5.965v221.462l-29.488-29.504c-2.329-2.33-6.101-2.33-8.43,0
				c-2.329,2.33-2.329,6.104,0,8.434l37.918,37.938v263.839c0,3.294,2.669,5.964,5.961,5.964c3.293,0,5.962-2.67,5.962-5.964V928.45
				l46.809-46.831C1791.249,879.291,1791.249,875.515,1788.92,873.185z"/>
		</g>
		<g>
			<path style="fill:#527FBF;" d="M384.35,1055.338c-9.606-37.705,28.644-49.953,43.312-59.814
				c22.437-15.083,22.437-28.994,22.437-51.22c0-13.899,13.934-57.919,46.824-57.047c32.891-0.872,46.824,43.148,46.824,57.047
				c0,22.227,0,36.137,22.437,51.22c14.668,9.861,52.918,22.109,43.312,59.814c-10.917,42.85,24.746,58.885,20.587,92.117
				c-4.155,33.201-63.526,54.951-133.064,54.992v0.001c-0.032,0-0.065-0.001-0.097-0.001c-0.032,0-0.064,0.001-0.097,0.001v-0.001
				c-69.539-0.04-128.909-21.791-133.064-54.992C359.604,1114.223,395.267,1098.188,384.35,1055.338z"/>
			<path style="fill:#3B679B;" d="M558.889,1031.53c-2.417-2.237-6.192-2.083-8.423,0.333l-47.582,51.539V964.685
				c0-3.294-2.669-5.964-5.961-5.964s-5.961,2.67-5.961,5.964v184.78l-56.145-56.176c-2.329-2.33-6.101-2.33-8.43,0
				c-2.329,2.33-2.329,6.104,0,8.434l64.574,64.611v152.066c0,3.295,2.669,5.965,5.961,5.965s5.961-2.67,5.961-5.965v-217.42
				l56.338-61.022C561.458,1037.536,561.309,1033.764,558.889,1031.53z"/>
		</g>
		<g>
			<path style="fill:#7689D6;" d="M2029.499,1055.338c-9.606-37.705,28.644-49.953,43.312-59.814
				c22.437-15.083,22.437-28.994,22.437-51.22c0-13.899,13.934-57.919,46.824-57.047c32.891-0.872,46.824,43.148,46.824,57.047
				c0,22.227,0,36.137,22.437,51.22c14.668,9.861,52.918,22.109,43.312,59.814c-10.917,42.85,24.746,58.885,20.588,92.117
				c-4.155,33.201-63.526,54.951-133.064,54.992v0.001c-0.032,0-0.064-0.001-0.097-0.001c-0.032,0-0.064,0.001-0.097,0.001v-0.001
				c-69.539-0.04-128.909-21.791-133.064-54.992C2004.752,1114.223,2040.415,1098.188,2029.499,1055.338z"/>
			<path style="fill:#3B679B;" d="M2204.038,1031.53c-2.417-2.237-6.192-2.083-8.423,0.333l-47.582,51.539V964.685
				c0-3.294-2.669-5.964-5.961-5.964s-5.961,2.67-5.961,5.964v184.78l-56.144-56.176c-2.329-2.33-6.101-2.33-8.43,0
				c-2.329,2.33-2.329,6.104,0,8.434l64.574,64.611v152.066c0,3.295,2.669,5.965,5.961,5.965s5.961-2.67,5.961-5.965v-217.42
				l56.338-61.022C2206.606,1037.536,2206.457,1033.764,2204.038,1031.53z"/>
		</g>
	</g>
	<g id="_x37_">
		<path style="fill:#A3BCEF;" d="M713.624,152.158c20.344,0,38.438,10.316,49.97,26.333c19.748-12.839,51.403-10.414,68.463,5.212
			c19.575-25.234,53.869-12.491,61.71,18.26c21.739-23.343,58.789-3.627,57.774,28.537H651.366
			C644.797,190.696,675.02,151.592,713.624,152.158z"/>
		<path style="fill:#A3BCEF;" d="M1613.374,205.171c20.344,0,38.438,10.315,49.97,26.332c19.748-12.839,51.403-10.414,68.463,5.212
			c19.575-25.234,53.869-12.491,61.711,18.26c21.739-23.343,58.789-3.627,57.774,28.537h-300.175
			C1544.547,243.709,1574.77,204.604,1613.374,205.171z"/>
	</g>
	<g id="_x36_">
		<rect x="0.116" y="1368.997" style="fill:#C5E2FF;" width="2598.633" height="631.003"/>
		<rect y="1522.998" style="fill:#94B3EA;" width="2600" height="477.002"/>
		<rect y="1548.619" style="fill:#A3BCEF;" width="2600" height="451.381"/>
		<rect y="1296.997" style="fill:#94B3EA;" width="2600" height="72"/>
	</g>
	<path id="_x35_" style="fill:#FFFFFD;" d="M2600,1207.061v-18.065H0v18.065h172.961v29.603H0v18.065h172.961v28.936H0v18.065
		h172.961v221.269h18.013v-221.269h185.368v221.269h18.013v-221.269h185.368v221.269h18.013v-221.269h185.369v221.269h18.013
		v-221.269h185.369v221.269h18.013v-221.269h185.369v221.269h18.013v-221.269h185.369v221.269h18.013v-221.269h185.368v221.269
		h18.013v-221.269h185.369v221.269h18.013v-221.269h185.369v221.269h18.013v-221.269h185.368v221.269h18.013v-221.269h185.368
		v221.269h18.013v-221.269H2600v-18.065h-171.825v-28.936H2600v-18.065h-171.825v-29.603H2600z M597.738,1207.061h185.369v29.603
		H597.738V1207.061z M579.724,1236.664H394.356v-29.603h185.368V1236.664z M801.12,1207.061h185.369v29.603H801.12V1207.061z
		 M1004.502,1207.061h185.369v29.603h-185.369V1207.061z M1207.883,1207.061h185.369v29.603h-185.369V1207.061z M1411.265,1207.061
		h185.368v29.603h-185.368V1207.061z M1614.647,1207.061h185.369v29.603h-185.369V1207.061z M1818.029,1207.061h185.369v29.603
		h-185.369V1207.061z M2021.411,1207.061h185.368v29.603h-185.368V1207.061z M190.974,1207.061h185.368v29.603H190.974V1207.061z
		 M190.974,1283.664v-28.936h185.368v28.936H190.974z M394.356,1283.664v-28.936h185.368v28.936H394.356z M597.738,1283.664v-28.936
		h185.369v28.936H597.738z M801.12,1283.664v-28.936h185.369v28.936H801.12z M1004.502,1283.664v-28.936h185.369v28.936H1004.502z
		 M1207.883,1283.664v-28.936h185.369v28.936H1207.883z M1411.265,1283.664v-28.936h185.368v28.936H1411.265z M1614.647,1283.664
		v-28.936h185.369v28.936H1614.647z M1818.029,1283.664v-28.936h185.369v28.936H1818.029z M2021.411,1283.664v-28.936h185.368
		v28.936H2021.411z M2410.161,1283.664h-185.368v-28.936h185.368V1283.664z M2410.161,1236.664h-185.368v-29.603h185.368V1236.664z"
		/>
	<g id="_x34_">
		<path style="fill:#527FBF;" d="M1359.279,1999.998H0.009v-413.074c173.323-6.756,306.923,72.591,357.878,254.396
			c66.668,148.35,218.198-82.093,323.79-88.979c18.524-3.664,37.414-4.048,56.601,0.143c96.344,21.032,89.543,180.94,229.08,180.94
			c152.617,0,135.146-66.584,242.213-59.215C1324.848,1882.144,1359.279,1999.998,1359.279,1999.998z"/>
		<path style="fill:#7689D6;" d="M624.905,1920.784c-24.662,28.059-51.745,54.612-79.07,79.216H172.721
			c77.725-93.204,164.732-185.841,270.108-248.211C619.377,1642.179,780.133,1719.877,624.905,1920.784z"/>
		<path style="fill:#4867AA;" d="M624.905,1920.784c-3.745,4.378-7.712,8.768-11.68,12.993
			c-61.475-93.167-68.742-182.955-65.726-226.485c5.719-1.366,13.276-2.438,18.953-3.399
			C564.061,1747.249,566.123,1827.119,624.905,1920.784z"/>
		<path style="fill:#4867AA;" d="M509.854,2000h-18.762c-47.491-73.019-71.16-158.426-57.957-242.459
			c5.662-3.499,11.464-7.097,17.227-10.321C437.103,1835.603,460.184,1922.803,509.854,2000z"/>
		<path style="fill:#4867AA;" d="M343.744,2000h-17.377c-13.746-50.105-17.339-102.424-9.668-153.413
			c5.461-4.994,10.975-9.883,16.541-14.693c1.855,2.092,2.508,4.915,1.907,7.503c-3.815,21.307-5.592,43.321-5.278,65.412
			C329.964,1936.74,335.714,1968.654,343.744,2000z"/>
		<path style="fill:#4867AA;" d="M286.231,1363.995c-0.079,3.896-0.235,7.791-0.418,11.713
			c-2.822,58.876-16.619,121.622-36.896,185.23c-2.639,8.34-5.409,16.68-8.257,25.046C190.098,1733.488,108.336,1883.659,51.45,2000
			H0v-644.606c17.481-29.961,38.986-56.863,60.047-82.772c54.717-66.719,105.828-88.445,145.546-77.465
			c6.036,1.647,11.784,4.078,17.272,7.216c37.366,21.307,61.328,75.635,63.235,149.335
			C286.231,1355.733,286.257,1359.838,286.231,1363.995z"/>
		<path style="fill:#C5E2FF;" d="M126.157,1437.564c-21.845,58.04-42.749,117.177-62.373,176.263
			c30.703,0,115.313-24.575,185.132-52.889c-2.639,8.34-5.409,16.68-8.257,25.046c-77.947,36.811-161.825,47.608-184.036,49.673
			c-15.991,48.863-38.855,124.969-53.907,176.681c-0.94,3.242-1.855,6.379-2.718,9.412v-65.543
			c13.771-48.785,31.513-98.667,39.953-129.099c-14.346-23.817-27.724-50.955-39.953-80.942v-51.87
			c4.311,11.163,7.813,20.654,8.388,22.17c11.968,32.079,25.216,61.125,39.483,86.589c19.101-57.334,39.379-114.668,60.517-171.06
			C84.375,1383.21,68.2,1313.85,60.047,1272.621c2.012-2.353,3.998-4.654,5.984-6.876c2.718-3.085,5.461-6.091,8.231-9.046
			c10.949,37.752,20.617,100.053,43.429,150.746c45.336-118.746,80.664-196.577,87.903-212.289
			c6.036,1.647,11.784,4.078,17.272,7.216c-4.39,9.699-39.587,85.674-87.379,210.616c32.27-9.359,99.974-37.125,150.614-61.281
			c0.131,4.026,0.157,8.131,0.131,12.288c-0.079,3.896-0.235,7.791-0.418,11.713
			C225.765,1406.479,149.543,1430.505,126.157,1437.564z"/>
		<path style="fill:#C5E2FF;" d="M164.673,1768.939c-3.905,8.73-7.936,17.416-11.942,26.066
			C108.358,1815.122,45.161,1831.91,0,1838.456v-25.752c19.917-2.684,47.578-6.296,75.307-14.327
			c28.326-8.262,55.579-18.353,80.925-29.935C159.107,1767.135,162.164,1767.423,164.673,1768.939z"/>
		<path style="fill:#3B679B;" d="M383.359,1791.285c-33.978,71.746-80.27,145.808-123.985,208.712H11.841
			c38.604-102.27,105.362-287.456,193.506-368.749C327.372,1518.709,466.352,1606.998,383.359,1791.285z"/>
		<path style="fill:#7689D6;" d="M330.102,1768.077c-41.831,84.371-90.16,160.092-142.341,231.92H11.841
			c52.938-126.699,146.419-443.355,320.414-417.155C358.346,1586.771,368.435,1685.633,330.102,1768.077z"/>
	</g>
	<g id="_x33_">
		<path style="fill:#527FBF;" d="M1572.281,1999.998c0,0,39.061-126.132,127.001-134.946
			c87.941-8.814,120.222,73.014,207.389,47.174c87.167-25.841-3.355-164.165,120.463-205.902
			c123.818-41.737,572.866-19.417,572.866-19.417l-0.012,313.091H1572.281z"/>
		<path style="fill:#7689D6;" d="M2518.069,2000h-394.438c-68.83-63.22-131.521-138.6-164.195-225.66
			c-62.701-144.499,13.249-246.027,162.206-184.673v0.026c0.646,0.233,1.266,0.491,1.911,0.75c0,0.026,0,0.026,0,0.026
			c66.548,26.802,120.808,76.961,170.525,129.188v0.026C2370.755,1800.525,2453.79,1909.8,2518.069,2000z"/>
		<path style="fill:#C5E2FF;" d="M2345.065,2000h-24.59c-25.906-24.422-51.762-49.515-76.997-74.712
			c-59.713,11.769-139.004,8.797-191.239,1.034c-5.976-6.947-11.76-14.011-17.383-21.217c38.589,5.918,121.371,15.661,193.125,4.626
			c-39.467-39.798-78.417-80.759-115.973-122.03c-48.909,4.85-115.182-5.693-152.573-13.36c-3.275-6.779-5.824-13.602-8.04-20.393
			c32.312,6.771,96.66,18.662,145.193,16.775c-81.026-89.959-129.811-152.513-137.818-162.901
			c3.735-4.802,7.731-9.424,12.441-13.241c1.668,2.022,49.383,64.788,136.768,161.98c5.424-34.397,13.896-108.462,13.664-166.867
			c0.646,0.233,1.266,0.491,1.911,0.75c0,0.026,0,0.026,0,0.026c5.802,2.331,12.419,4.445,17.335,7.626
			c-0.259,68.768-13.306,150.842-17.49,175.496c38.641,42.46,78.728,84.635,119.408,125.57
			c12.881-28.951,30.041-117.439,36.109-195.165c5.104,5.178,10.075,10.371,15.161,15.661
			c-2.057,90.72-29.317,171.99-37.194,193.666C2284.031,1940.355,2317.221,1973.847,2345.065,2000z"/>
		<path style="fill:#3B679B;" d="M2530.443,1999.998h-160.047c-121.876-160.208-271.344-420.828-241.155-636.646
			c26.521-147.997,165.576-121.174,232.164-13.619C2476.486,1535.615,2511.17,1790.252,2530.443,1999.998z"/>
		<path style="fill:#7689D6;" d="M2530.443,1999.998h-95.834c-100.852-130.096-206.247-313.92-238.421-489.788
			c-15.186-97.824-23.483-201.595,62.927-244.577C2452.453,1316.75,2515.86,1829.729,2530.443,1999.998z"/>
		<path style="fill:#4867AA;" d="M2600,1304.648V2000h-80.562c-19.974-45.132-47.415-113.504-68.137-173.819h-0.026
			c-1.679-4.936-3.332-9.924-4.985-14.911c-41.731-125.94-78.854-265.559-68.163-399.556
			C2384.377,1264.694,2487.436,1145.508,2600,1304.648z"/>
		<path style="fill:#C5E2FF;" d="M2600,1381.51v20.795c-101.538-7.529-173.601-47.554-207.79-71.66
			c2.001-6.965,4.559-14.905,7.285-19.806C2434.286,1334.236,2497.785,1373.24,2600,1381.51z"/>
		<path style="fill:#C5E2FF;" d="M2600,1535.484v20.795c-85.403-5.705-160.621-33.678-223.642-86.126
			c-0.148-8.18-0.153-16.324,0.059-24.458C2441.496,1495.358,2512.385,1531.489,2600,1535.484z"/>
		<path style="fill:#C5E2FF;" d="M2600,1703.48v20.958c-75.292-12.327-145.775-44.121-203.839-92.215
			c-2.886-10.71-4.276-21.837-6.411-32.709C2448.348,1651.928,2521.272,1690.373,2600,1703.48z"/>
		<path style="fill:#C5E2FF;" d="M2600,1877.712v20.984c-48.895-8.632-99.288-30.546-143.198-56.828
			c-1.86-5.194-3.668-10.415-5.501-15.687h-0.026c-1.679-4.936-3.332-9.924-4.985-14.911c16.608,10.518,44.349,26.179,61.086,34.293
			C2536.976,1860.01,2569.753,1871.587,2600,1877.712z"/>
	</g>
	<g id="_x32_">
		<path style="fill:#F99370;" d="M1483.199,1787.867l-122.319-2.841c6.005-34.925,0.316-113.187-3.73-150.357l70.267,1.632
			l-13.457,90.046c-1.587,10.619,4.538,20.912,14.662,24.511c22.417,9.202,48.507,5.516,62.518,23.796
			C1494.617,1780.582,1490.074,1788.027,1483.199,1787.867z"/>
		<path style="fill:#F99370;" d="M1158.347,1784.515l-105.916-61.195c22.053-27.749,54.685-99.127,69.005-133.674l60.845,35.154
			l-55.088,72.524c-6.496,8.553-6.073,20.521,1.077,28.537c15.237,18.829,39.892,28.117,43.393,50.876
			C1171.863,1783.605,1164.3,1787.954,1158.347,1784.515z"/>
		<path style="fill:#662948;" d="M1296.442,576.801c0,0,45.606-10.788,71.224,43.621c16.767,35.612-9.295,32.761,27.78,61.972
			c68.727,54.149,5.386,134.117-40.344,134.764c-30.813,0.436-15.941,9.074-75.146,6.36
			C1220.749,820.804,1089.611,618.637,1296.442,576.801z"/>
		<path style="fill:#F99370;" d="M1373,799.877c42.404,44.884,68.281,102.659,88.862,159.831
			c9.22,27.694,17.003,56.058,29.849,82.39c18.01,38.142,41.562,74.433,72.479,103.409c13.209,12.335-3.539,33.76-18.669,23.866
			c-14.744-9.303-28.326-20.378-41.165-32.095c-34.914-31.955-64.057-70.148-87.061-111.482
			c-28.6-54.877-58.695-112.955-107.593-152.187c-0.036,0.066,0.293,0.323,0.343,0.379
			C1261.757,832.589,1324.375,758.934,1373,799.877z"/>
		<path style="fill:#EB5648;" d="M1492.901,1776.533c-0.022-0.068-0.044-0.135-0.067-0.204
			c-4.027-12.211-18.307-30.268-66.581-35.98l4.962-51.792c0.535-5.585-4.345-10.214-9.882-9.311
			c-25.037,4.082-46.642,0.742-58.607-2.063c-4.884-1.145-9.441,2.859-8.969,7.853l6.078,64.369l0,0
			c-1.713,6.653-3.218,15.396-2.392,23.779c0.401,4.14,1.449,8.177,3.437,11.843l123.447,2.868
			C1490.321,1788.034,1494.756,1782.231,1492.901,1776.533z"/>
		<path style="fill:#EB5648;" d="M1128.105,1713.316l32.721-45.071c2.989-4.117,1.227-9.932-3.53-11.737
			c-23.958-9.088-40.739-22.567-49.77-31.162c-3.888-3.7-10.28-2.349-12.38,2.592l-27.395,64.463
			c-4.539,5.066-9.584,11.705-12.645,18.882c-1.638,3.824-2.66,7.868-2.679,12.037l106.892,61.759c5.192,3,11.872,0.038,12.983-5.85
			c0.013-0.07,0.026-0.141,0.039-0.211C1174.741,1766.05,1170.629,1742.507,1128.105,1713.316z"/>
		<path style="fill:#CE3932;" d="M1492.833,1776.329l-135.392-3.145c0.401,4.14,1.449,8.177,3.437,11.843l123.447,2.868
			c5.996,0.139,10.432-5.664,8.576-11.362C1492.879,1776.465,1492.856,1776.397,1492.833,1776.329z"/>
		<path style="fill:#CE4ABF;" d="M1546.118,1126.836c0,0-15.77,4.2-22.62,26.82c-9.98,2.27-19.54,1.65-28.79-1.12
			c-9.18-2.74-18.06-7.59-26.74-13.82c-14.66-10.53-28.77-24.97-42.83-39.78c-88.44-80.36-91.06-207.601-97.28-314.621
			c0.02,0,0.02-0.02,0-0.04c-0.32-5.62-0.47-8.79-0.47-8.79s0,0,0.02,0v0.02c0.52,0.09,3.41,0.79,8.18,2.28v0.02
			c98.13,17.78,119.791,164.651,157.961,241.091C1516.178,1064.396,1547.758,1089.096,1546.118,1126.836z"/>
		<path style="fill:#CE3932;" d="M1172.343,1779.018l-117.236-67.735c-1.638,3.824-2.66,7.868-2.679,12.037l106.892,61.759
			c5.192,3,11.872,0.038,12.983-5.85C1172.317,1779.159,1172.33,1779.089,1172.343,1779.018z"/>
		<path style="fill:#1D3F70;" d="M1449.367,1648.018c-2.12,13.22-3.49,20.52-3.49,20.52c-31.36,14.82-71.48,7.03-94.32,0.36
			c-11.06-3.22-18.07-6.18-18.07-6.18c0.6-8.07,1.12-16.13,1.57-24.18c10.37-187.031-19.31-366.362-19.7-368.752
			c-0.01-0.01-0.01-0.02-0.01-0.02c-8.04,197.551-80.7,317.381-112.82,361.112c-9.26,12.61-15.15,18.9-15.15,18.9
			c-57.08,7.4-89.691-44.48-89.691-44.48c3.91-6.42,7.55-12.86,10.92-19.33c78.27-149.981,17.09-312.681,48.37-448.652
			c5.35-23.24,13.4-45.71,25.31-67.2c50.58-91.23,252.101,9.37,252.101,9.37c5.52,16.93,10.31,34.44,14.45,52.35
			C1494.448,1329.227,1460.887,1576.118,1449.367,1648.018z"/>
		<path style="fill:#A523A2;" d="M1494.708,1152.536c-9.18-2.74-18.06-7.59-26.74-13.82l-47.82-154.961l-14.89-136.741
			c0,0,39.05,40.81,39.99,79.61s-3.97,61.26,6.65,94.46C1459.977,1046.325,1483.777,1119.126,1494.708,1152.536z"/>
		<path style="fill:#F99370;" d="M1279.851,777.218c0.773-3.408,1.115-8.818,1.153-15.153c0.177-21.576-3.016-53.756-4.194-53.009
			c-7.589-29.57,45.293-40.06,52.058-10.161l-1.305,67.122l-0.19,9.426C1369.144,834.382,1235.369,790.546,1279.851,777.218z"/>
		<path style="fill:#E57D61;" d="M1328.868,698.896l-1.305,67.122c-11.415,2.306-27.151,2.635-46.56-3.953
			c0.177-21.576-3.016-53.756-4.194-53.009C1269.221,679.487,1322.103,668.997,1328.868,698.896z"/>
		<path style="fill:#163356;" d="M1448.837,1131.836c-119.162,40.071-245.969,21.96-291.861,5.48c5.35-23.24,13.4-45.71,25.31-67.2
			c50.58-91.23,252.101,9.37,252.101,9.37C1439.907,1096.416,1444.697,1113.926,1448.837,1131.836z"/>
		<path style="fill:#FCB4B4;" d="M1444.266,1081.561c-32.674,58.089-287.14,36.813-274.883-14.559
			c1.697-18.878,20.185-40.029,20.075-60.894c-2.542-98.801,22.212-185.128,72.959-225.788c4.322-0.779,13.078-2.34,17.416-3.107
			c38.191,24.411,46.666,15.767,48.019,7.101c0.022,0,0.022-0.021,0-0.042c0.68-4.133-0.368-8.287-0.423-8.771c0,0,0,0,0.021,0
			l8.135,2.303c14.55,12.663,34.29,38.507,56.093,63.199c31.707,37.506,40.981,63.164,25.542,115.121
			c-10.455,35.186,15.4,72.176,24.679,99.271C1444.985,1064.4,1446.317,1073.086,1444.266,1081.561z"/>
		<path style="fill:#CE4ABF;" d="M1270.788,778.841c0,0,52.158,119.149,25.654,255.673
			c-26.504,136.523-43.237,264.618-43.237,264.618s-99.716,6.469-177.35-34.935c0,0,82.776-187.176,97.025-252.737
			C1187.13,945.9,1206.123,804.144,1270.788,778.841z"/>
		<path style="fill:#CE4ABF;" d="M1335.589,777.784c0,0,62.445,76.788,67.62,139.92s-10.351,79.952,15.527,179.582
			c25.878,99.629,32.347,194.083,32.347,194.083s45.286-5.176,71.164-20.702c0,0-67.304-204.16-76.997-243.761
			c-9.693-39.601-9.736-70.044-8.466-109.202C1438.054,878.546,1393.476,825.747,1335.589,777.784z"/>
		<path style="fill:#F99370;" d="M1605.124,1148.917c-3.162,6.747-15.02,0.127-21.329,2.509c5.965,8.322,14.446,14.76,14.446,14.832
			c11.344,5.518,22.973,10.36,34.858,14.648c11.16,15.362-32.698-1.995-38.137-2.903c-0.035,0.058-0.073,0.115-0.108,0.173
			c10.25,8.278,21.005,15.964,32.382,22.617c7.858,18.577-34.983-11.467-40.109-14.137c-0.026,0.021-0.053,0.041-0.079,0.062
			c8.218,9.537,17.684,17.999,27.983,25.249c6.275,19.539-34.782-14.569-38.802-18.776c-0.048,0.022-0.095,0.044-0.143,0.066
			c5.315,8.523,11.773,16.319,18.603,23.688c3.379,19.325-27.857-15.787-30.999-20.032c-3.211-1.615-19.599-15.655-29.642-36.203
			c-3.291-6.734,16.367-25.958,22.653-22.374c4.717,2.689,18.053,2.546,21.324,3.358
			C1585.596,1142.452,1602.704,1140.589,1605.124,1148.917z"/>
		<path style="fill:#F99370;" d="M1348.576,746.79c-19.563,13.484-45.676,13.254-65.007,5.012c-1.095-0.47-2.211-0.939-3.25-1.459
			c-41.476-20.165-40.736-89.643-15.949-121.768c15.504-21.928,48.801-30.613,70.851-13.809
			c15.23,12.33,18.293,30.901,22.332,50.598c1.352,5.186,4.53,12.225,8.002,17.274
			C1378.798,702.454,1373.748,728.509,1348.576,746.79z"/>
		<path style="fill:#E57D61;" d="M1301.237,648.68c-37.314,4.559-38.869,33.715-38.869,33.715l-11.039-17.518l39.961-47.71
			l32.197-8.699c7.179,2.349,13.291,6.701,18.069,12.588C1341.555,621.055,1338.551,644.12,1301.237,648.68z"/>
		<path style="fill:#F9F8F3;" d="M1340.869,717.706l-23.996-18.81C1311.287,714.6,1326.139,728.223,1340.869,717.706z"/>
		<path style="fill:#C16256;" d="M1327.688,677.695c2.548-3.17-2.488-7.099-4.943-3.856
			C1320.198,677.009,1325.234,680.938,1327.688,677.695z"/>
		<path style="fill:#C16256;" d="M1354.4,678.389c2.548-3.169-2.488-7.099-4.943-3.856
			C1346.909,677.703,1351.946,681.632,1354.4,678.389z"/>
		<path style="fill:#C16256;" d="M1340.868,718.892c-0.907,0.218-23.99-18.801-24.728-19.062c-0.515-0.403-0.605-1.149-0.201-1.664
			c0.448-2.907,24.966,18.792,25.662,18.605C1342.491,717.419,1341.952,718.936,1340.868,718.892z"/>
		<path style="fill:#C16256;" d="M1342.41,703.523c-2.195-0.227-7.273-0.18-6.795-3.048c0.316-0.574,1.037-0.784,1.611-0.469
			c3.651,2.154,13.681,1.286,9.666-2.389c-5.886-4.553-10.762-24.561-5.632-19.124c0.02,0.13,1.945,13.013,7.14,17.292
			C1353.73,701.18,1347.449,703.374,1342.41,703.523z"/>
		<path style="fill:#C16256;" d="M1315.522,671.099c-0.314,0.069-0.654-0.03-0.883-0.286c-0.338-0.379-0.305-0.959,0.074-1.297
			c0.325-0.29,8.058-7.095,16.07-6.246c0.504,0.053,0.87,0.506,0.817,1.01c-0.054,0.505-0.507,0.869-1.01,0.817
			c-7.211-0.764-14.58,5.724-14.653,5.79C1315.814,670.996,1315.671,671.066,1315.522,671.099z"/>
		<path style="fill:#C16256;" d="M1355.892,670.09c-0.14-0.04-0.272-0.115-0.384-0.223c-3.737-3.621-9.568-3.598-9.627-3.598
			c-0.508,0.006-0.923-0.401-0.93-0.907c-0.006-0.507,0.398-0.923,0.905-0.93c0.269-0.004,6.638-0.044,10.93,4.115
			c0.364,0.353,0.374,0.935,0.02,1.299C1356.563,670.1,1356.208,670.182,1355.892,670.09z"/>
		<path style="fill:#F49F9F;" d="M1328.72,798.644c-5.157,3.17-12.301,4.1-19.444,3.086c-15.471-2.198-38.488-22.89-38.488-22.89
			v-0.021l9.046-1.606c38.191,24.411,45.208,14.565,47.554,7.275c0.778-2.416,0-9.008,0-9.008s0,0,0.021,0c0,0,0,0,0.021,0.021
			c0,0,0,0,0.021,0c0.444,0.105,3.424,0.803,8.137,2.282v0.021c0.38,1.543,0.613,3.022,0.74,4.396
			C1337.068,790.106,1333.877,795.495,1328.72,798.644z"/>
		<path style="fill:#CE4ABF;" d="M1270.786,778.844c0,0-16.19,88.161-32.13,147.781c-2.99,11.19-5.97,21.37-8.83,29.78
			c-1.64,4.8-3.59,9.28-5.84,13.44c-22.55,41.94-73.76,52.26-113.551,48.11c0,0-31.99-73.8,46.29-193.911
			C1198.336,760.194,1270.786,778.844,1270.786,778.844z"/>
		<path style="fill:#F99370;" d="M1267.126,946.97c0,0,21.593-32.831,48.174-34.932l-3.026,13.297L1267.126,946.97z"/>
		<path style="fill:#F99370;" d="M1149.607,977.623c33.629-20.475,118.974-32.082,118.974-32.082
			c24.718-16.803,45.675,13.327,24.964,29.307c-7.798,5.252-15.932,10.141-24.157,14.647
			c-35.801,20.521-71.947,39.201-112.018,37.274C1157.37,1026.768,1126.964,991.409,1149.607,977.623z"/>
		<path style="fill:#662948;" d="M1335.216,614.768c3.679-32.811-97.562-103.615-158.437,19.952
			c-29.424,59.726-65.679,76.893-26.28,122.823c22.068,25.726-22.72,39.654-9.949,63.497c22.63,42.249,155.72,41.113,135.517-15.614
			c-10.657-29.924-37.742-29.995-22.862-57.167c14.949-27.298-5.344-47.236-5.344-47.236l13.294-23.458
			C1264.116,632.995,1330.536,656.5,1335.216,614.768z"/>
		<path style="fill:#F99370;" d="M1238.281,696.301c5.519,24.378,35.125,17.776,29.847-6.628
			C1262.61,665.296,1233.003,671.897,1238.281,696.301z"/>
		<path style="fill:#C16256;" d="M1246.176,701.265c0.757-0.082,1.267-0.863,1.03-1.589c-4.746-12.908,0.858-18.467,9.661-14.935
			c1.473,0.592,2.374-1.75,0.876-2.295c-10.3-4.102-18.553,2.509-12.878,17.969C1245.043,700.984,1245.602,701.331,1246.176,701.265
			z"/>
		<path style="fill:#C16256;" d="M1257.595,699.438c3.374-0.783-3.559-11.862-12.996-12.597c-0.672-0.042-1.257,0.478-1.296,1.156
			c-0.039,0.677,0.478,1.257,1.156,1.296C1254.09,690.198,1255.093,699.292,1257.595,699.438z"/>
		<path style="fill:#3A72AA;" d="M1456.525,1089.407c-4.345-10.225-20.071-3.144-15.57,6.825c2.107,4.843,5.948,19.933,3.873,29.36
			c-0.69,3.134-4.657,6.716-8.043,7.83c-26.96,6.643-33.65-28.087-39.535-39.644C1397.25,1093.776,1184.304,581,1184.304,581
			l-7.865-18.934c-3.752-9.442-19.014-3.57-14.826,6.145c11.978,28.791,225.742,549.248,232.812,561.461
			c10.743,18.558,30.275,25.199,48.445,19.324C1472.089,1139.549,1461.862,1098.605,1456.525,1089.407z"/>
		<path style="fill:#3A72AA;" d="M1070.903,344.244l-1.989-12.18c-0.262-1.603,0.826-3.115,2.429-3.377
			c1.057-0.172,2.078,0.246,2.723,1.008l7.952,9.438c2.258,2.68,1.916,6.684-0.764,8.942c-2.68,2.258-6.684,1.916-8.942-0.764
			C1071.553,346.409,1071.084,345.33,1070.903,344.244z"/>
		<path style="fill:#EB5648;" d="M1531.857,418.367c0,0-111.634,45.158-208.86,121.121c0,0-81.932,5.11-148.634,32.093
			c-67.07,27.131-134.255,82.341-134.255,82.341c-104.829,10.388-233.913,57.989-233.913,57.989
			c-4.516-149.505,100.467-301.535,270.268-370.222C1246.263,273.001,1428.985,308.649,1531.857,418.367z"/>
		<path style="fill:#CE3932;" d="M1322.996,539.488c0,0-79.466,17.492-146.169,44.475c-67.07,27.131-136.721,69.959-136.721,69.959
			c-28.941-193.475,36.355-312.233,36.355-312.233C1222.689,407.236,1322.996,539.488,1322.996,539.488z"/>
		<path style="fill:#F99370;" d="M1273.427,944.979c0,0,11.791-17.449,30.526-24.386c15.25-5.646,19.543-5.646,19.543-5.646
			l20.864,34.894c0,0-14.085,22.091-58.563,27.782L1273.427,944.979z"/>
		<path style="fill:#F99370;" d="M1331.868,916.42c1.547,2.679-0.435,6.719-4.427,9.023s-8.481,2.001-10.028-0.678
			c-1.547-2.679,0.435-6.719,4.427-9.023C1325.832,913.438,1330.322,913.741,1331.868,916.42z"/>
		<path style="fill:#F99370;" d="M1341.237,934.964c1.547,2.679-0.436,6.719-4.427,9.023c-3.992,2.305-8.481,2.001-10.028-0.678
			c-1.547-2.679,0.435-6.719,4.427-9.023C1335.201,931.982,1339.69,932.285,1341.237,934.964z"/>
		<path style="fill:#F99370;" d="M1344.938,944.437c1.547,2.679-0.435,6.719-4.427,9.023c-3.991,2.305-8.481,2.001-10.028-0.678
			c-1.547-2.679,0.435-6.719,4.427-9.023C1338.902,941.454,1343.392,941.758,1344.938,944.437z"/>
		<path style="fill:#F99370;" d="M1337.144,925.558c1.547,2.679-0.436,6.719-4.427,9.023c-3.992,2.305-8.481,2.001-10.028-0.678
			c-1.547-2.679,0.435-6.719,4.427-9.023C1331.108,922.576,1335.597,922.88,1337.144,925.558z"/>
		<path style="fill:#163356;" d="M1351.557,1668.898c-11.06-3.22-18.07-6.18-18.07-6.18c14.55-195.441-17.72-390.442-18.13-392.932
			c0.55,1.03,27.29,51.1,37.39,178.441C1359.707,1535.958,1355.157,1622.618,1351.557,1668.898z"/>
		<path style="fill:#163356;" d="M1202.526,1630.878c-9.26,12.61-15.15,18.9-15.15,18.9c-57.08,7.4-89.691-44.48-89.691-44.48
			c3.91-6.42,7.55-12.86,10.92-19.33C1125.536,1605.018,1156.266,1629.658,1202.526,1630.878z"/>
		<path style="fill:#163356;" d="M1449.367,1648.018c-2.12,13.22-3.49,20.52-3.49,20.52c-31.36,14.82-71.48,7.03-94.32,0.36
			c-11.06-3.22-18.07-6.18-18.07-6.18c0.6-8.07,1.12-16.13,1.57-24.18C1350.687,1645.468,1389.867,1658.338,1449.367,1648.018z"/>
		<path style="fill:#A523A2;" d="M1238.656,926.625c-2.99,11.19-5.97,21.37-8.83,29.78c-1.64,4.8-3.59,9.28-5.84,13.44l-85.051-9.85
			C1177.056,920.695,1238.656,926.625,1238.656,926.625z"/>
		<path style="fill:#A523A2;" d="M1256.477,850.616c0,0-9.438,72.797-15.566,96.354l-16.34-1.803L1256.477,850.616z"/>
		<path style="fill:#CE4ABF;" d="M1262.166,946.486c0,0-8.138,22.067,17.285,37.266c0,0-3.564,37.332-41.797,52.721
			c-38.232,15.39-122.335,29.532-128.805-26.525c-6.469-56.057,92.88-74.923,112.752-75.308
			C1241.473,934.255,1263.364,936.643,1262.166,946.486z"/>
		<path style="fill:#A523A2;" d="M1166.657,1052.115c-3.146,0-4.958-0.091-5.042-0.096c-1.103-0.062-1.947-1.005-1.886-2.107
			c0.061-1.104,0.992-1.946,2.107-1.887c0.394,0.024,39.832,1.989,75.018-13.386c35.603-15.557,40.568-50.792,40.614-51.146
			c0.142-1.096,1.136-1.871,2.241-1.726c1.095,0.142,1.868,1.146,1.726,2.241c-0.049,0.377-5.326,37.844-42.979,54.297
			C1209.883,1050.789,1178.629,1052.115,1166.657,1052.115z"/>
		<path style="fill:#A523A2;" d="M1262.167,948.486c-0.155,0-0.313-0.018-0.471-0.057c-1.063-0.257-1.72-1.318-1.482-2.38
			c0.024-0.128,0.318-1.893-1.291-3.979c-2.158-2.797-7.765-6.318-22.22-7.207c-1.103-0.067-1.941-1.016-1.874-2.119
			c0.067-1.103,1.02-1.959,2.119-1.874c12.983,0.798,21.493,3.81,25.292,8.955c2.631,3.563,1.956,6.775,1.87,7.13
			C1263.889,947.872,1263.07,948.486,1262.167,948.486z"/>
	</g>
	<g id="_x31_">
		<path style="fill:#FFFFFF;" d="M871.245,345.18c2.619,12.522-0.98,17.907-6.564,19.075c-5.584,1.168-11.04-2.324-13.658-14.846
			s4.175-30.499,4.175-30.499S868.626,332.658,871.245,345.18z"/>
		<path style="fill:#FFFFFF;" d="M139.652,648.922c2.619,12.522-0.98,17.907-6.564,19.075c-5.584,1.168-11.04-2.324-13.658-14.846
			c-2.619-12.522,4.175-30.499,4.175-30.499S137.033,636.4,139.652,648.922z"/>
		<path style="fill:#FFFFFF;" d="M634.871,444.546c2.619,12.522-0.98,17.907-6.564,19.075c-5.584,1.168-11.04-2.324-13.658-14.846
			s4.175-30.499,4.175-30.499S632.252,432.024,634.871,444.546z"/>
		<path style="fill:#FFFFFF;" d="M439.459,696.479c2.619,12.522-0.98,17.907-6.564,19.075c-5.584,1.168-11.04-2.324-13.658-14.846
			c-2.619-12.522,4.175-30.499,4.175-30.499S436.84,683.957,439.459,696.479z"/>
		<path style="fill:#FFFFFF;" d="M700.277,685.886c2.619,12.522-0.98,17.907-6.564,19.075c-5.584,1.168-11.04-2.324-13.658-14.846
			c-2.619-12.522,4.175-30.499,4.175-30.499S697.658,673.364,700.277,685.886z"/>
		<path style="fill:#FFFFFF;" d="M660.441,906.148c2.619,12.522-0.98,17.907-6.564,19.075c-5.584,1.168-11.04-2.324-13.658-14.846
			c-2.619-12.522,4.175-30.499,4.175-30.499S657.822,893.627,660.441,906.148z"/>
		<path style="fill:#FFFFFF;" d="M479.648,1621.726c2.619,12.522-0.98,17.907-6.564,19.075c-5.584,1.168-11.04-2.324-13.658-14.846
			c-2.619-12.522,4.175-30.499,4.175-30.499S477.03,1609.204,479.648,1621.726z"/>
		<path style="fill:#FFFFFF;" d="M325.88,1076.149c2.619,12.522-0.98,17.907-6.564,19.075c-5.584,1.168-11.04-2.324-13.658-14.846
			c-2.619-12.522,4.175-30.499,4.175-30.499S323.262,1063.627,325.88,1076.149z"/>
		<path style="fill:#FFFFFF;" d="M1143.184,313.127c2.619,12.522-0.98,17.907-6.564,19.075c-5.584,1.168-11.04-2.324-13.658-14.846
			c-2.619-12.522,4.175-30.499,4.175-30.499S1140.565,300.605,1143.184,313.127z"/>
		<path style="fill:#FFFFFF;" d="M1280.764,125.708c2.619,12.522-0.98,17.907-6.564,19.075c-5.584,1.168-11.04-2.324-13.658-14.846
			c-2.619-12.522,4.175-30.499,4.175-30.499S1278.145,113.186,1280.764,125.708z"/>
		<path style="fill:#FFFFFF;" d="M1513.204,247.83c2.619,12.522-0.98,17.907-6.564,19.075c-5.584,1.168-11.04-2.324-13.658-14.846
			c-2.619-12.522,4.175-30.499,4.175-30.499S1510.585,235.308,1513.204,247.83z"/>
		<path style="fill:#FFFFFF;" d="M1367.042,367.958c2.619,12.522-0.98,17.907-6.564,19.075c-5.584,1.168-11.04-2.324-13.658-14.846
			c-2.619-12.522,4.175-30.499,4.175-30.499S1364.424,355.437,1367.042,367.958z"/>
		<path style="fill:#FFFFFF;" d="M1605.82,115.082c2.619,12.522-0.98,17.907-6.564,19.075c-5.584,1.168-11.04-2.324-13.658-14.846
			c-2.619-12.522,4.175-30.499,4.175-30.499S1603.201,102.56,1605.82,115.082z"/>
		<path style="fill:#FFFFFF;" d="M1678.389,413.515c2.619,12.522-0.98,17.907-6.564,19.075c-5.584,1.168-11.04-2.324-13.658-14.846
			c-2.619-12.522,4.175-30.499,4.175-30.499S1675.771,400.993,1678.389,413.515z"/>
		<path style="fill:#FFFFFF;" d="M697.543,1449.187c2.619,12.522-0.98,17.907-6.564,19.075c-5.584,1.168-11.04-2.324-13.658-14.846
			c-2.619-12.522,4.175-30.499,4.175-30.499S694.925,1436.665,697.543,1449.187z"/>
		<path style="fill:#FFFFFF;" d="M1965.509,137.86c2.619,12.522-0.98,17.907-6.564,19.075c-5.584,1.168-11.04-2.324-13.658-14.846
			c-2.619-12.522,4.175-30.499,4.175-30.499S1962.891,125.338,1965.509,137.86z"/>
		<path style="fill:#FFFFFF;" d="M1954.662,313.127c2.619,12.522-0.98,17.907-6.564,19.075c-5.584,1.168-11.04-2.324-13.658-14.846
			c-2.619-12.522,4.175-30.499,4.175-30.499S1952.043,300.605,1954.662,313.127z"/>
		<path style="fill:#FFFFFF;" d="M2207.362,183.417c2.619,12.522-0.98,17.907-6.564,19.075c-5.584,1.168-11.04-2.324-13.658-14.846
			c-2.619-12.522,4.175-30.499,4.175-30.499S2204.743,170.895,2207.362,183.417z"/>
		<path style="fill:#FFFFFF;" d="M2429.594,137.86c2.619,12.522-0.98,17.907-6.564,19.075c-5.584,1.168-11.04-2.324-13.658-14.846
			s4.175-30.499,4.175-30.499S2426.975,125.338,2429.594,137.86z"/>
		<path style="fill:#FFFFFF;" d="M2402.188,375.838c2.619,12.522-0.98,17.907-6.564,19.075c-5.584,1.168-11.04-2.324-13.658-14.846
			c-2.619-12.522,4.175-30.499,4.175-30.499S2399.569,363.316,2402.188,375.838z"/>
		<path style="fill:#FFFFFF;" d="M2504.853,489.973c2.619,12.522-0.98,17.907-6.564,19.075c-5.584,1.168-11.04-2.324-13.658-14.846
			c-2.619-12.522,4.175-30.499,4.175-30.499S2502.235,477.451,2504.853,489.973z"/>
		<path style="fill:#FFFFFF;" d="M1782.596,1705.434c2.619,12.522-0.98,17.907-6.564,19.075c-5.584,1.168-11.04-2.324-13.658-14.846
			c-2.619-12.522,4.175-30.499,4.175-30.499S1779.978,1692.912,1782.596,1705.434z"/>
		<path style="fill:#FFFFFF;" d="M2196.515,435.404c2.619,12.522-0.98,17.907-6.564,19.075s-11.04-2.324-13.658-14.846
			c-2.619-12.522,4.175-30.499,4.175-30.499S2193.896,422.882,2196.515,435.404z"/>
		<path style="fill:#FFFFFF;" d="M1847.686,531.673c2.619,12.522-0.98,17.907-6.564,19.075c-5.584,1.168-11.04-2.324-13.658-14.846
			c-2.619-12.522,4.175-30.499,4.175-30.499S1845.067,519.151,1847.686,531.673z"/>
		<path style="fill:#FFFFFF;" d="M2012.283,842.36c2.619,12.522-0.98,17.907-6.564,19.075c-5.584,1.168-11.04-2.324-13.658-14.846
			c-2.619-12.522,4.175-30.499,4.175-30.499S2009.665,829.838,2012.283,842.36z"/>
		<path style="fill:#FFFFFF;" d="M1739.723,1449.187c2.619,12.522-0.98,17.907-6.564,19.075c-5.584,1.168-11.04-2.324-13.658-14.846
			c-2.619-12.522,4.175-30.499,4.175-30.499S1737.105,1436.665,1739.723,1449.187z"/>
		<path style="fill:#FFFFFF;" d="M2051.298,626.144c2.619,12.522-0.98,17.907-6.564,19.075c-5.584,1.168-11.04-2.324-13.658-14.846
			c-2.619-12.522,4.175-30.499,4.175-30.499S2048.679,613.622,2051.298,626.144z"/>
		<path style="fill:#FFFFFF;" d="M2315.283,589.18c2.619,12.522-0.98,17.907-6.564,19.075c-5.584,1.168-11.04-2.324-13.658-14.846
			c-2.619-12.522,4.175-30.499,4.175-30.499S2312.665,576.658,2315.283,589.18z"/>
		<path style="fill:#FFFFFF;" d="M2233.515,773.317c2.619,12.522-0.98,17.907-6.564,19.075c-5.584,1.168-11.04-2.324-13.658-14.846
			c-2.619-12.522,4.175-30.499,4.175-30.499S2230.896,760.795,2233.515,773.317z"/>
		<path style="fill:#FFFFFF;" d="M2467.115,1003.487c2.619,12.522-0.98,17.907-6.564,19.075c-5.584,1.168-11.04-2.324-13.658-14.846
			c-2.619-12.522,4.175-30.499,4.175-30.499S2464.497,990.965,2467.115,1003.487z"/>
		<path style="fill:#FFFFFF;" d="M1170.867,512.752c2.619,12.522-0.98,17.907-6.564,19.075c-5.584,1.168-11.04-2.324-13.658-14.846
			c-2.619-12.522,4.175-30.499,4.175-30.499S1168.249,500.23,1170.867,512.752z"/>
		<path style="fill:#FFFFFF;" d="M1750.571,750.539c2.619,12.522-0.98,17.907-6.564,19.075c-5.584,1.168-11.04-2.324-13.658-14.846
			c-2.619-12.522,4.175-30.499,4.175-30.499S1747.952,738.017,1750.571,750.539z"/>
		<path style="fill:#FFFFFF;" d="M891.919,1644.504c2.619,12.522-0.98,17.907-6.564,19.075c-5.584,1.168-11.04-2.324-13.658-14.846
			c-2.619-12.522,4.175-30.499,4.175-30.499S889.3,1631.983,891.919,1644.504z"/>
		<path style="fill:#FFFFFF;" d="M1976.357,1048.338c2.619,12.522-0.98,17.907-6.564,19.075c-5.584,1.168-11.04-2.324-13.658-14.846
			s4.175-30.499,4.175-30.499S1973.738,1035.816,1976.357,1048.338z"/>
		<path style="fill:#FFFFFF;" d="M1018.557,183.417c2.619,12.522-0.98,17.907-6.564,19.075c-5.584,1.168-11.04-2.324-13.658-14.846
			c-2.619-12.522,4.175-30.499,4.175-30.499S1015.938,170.895,1018.557,183.417z"/>
		<path style="fill:#FFFFFF;" d="M246.201,390.737c2.619,12.522-0.98,17.907-6.564,19.075c-5.584,1.168-11.04-2.324-13.658-14.846
			c-2.619-12.522,4.175-30.499,4.175-30.499S243.582,378.215,246.201,390.737z"/>
		<path style="fill:#FFFFFF;" d="M279.567,155.644c2.619,12.522-0.98,17.907-6.564,19.075c-5.584,1.168-11.04-2.324-13.658-14.846
			c-2.619-12.522,4.175-30.499,4.175-30.499S276.948,143.122,279.567,155.644z"/>
		<path style="fill:#FFFFFF;" d="M525.845,256.769c2.619,12.522-0.98,17.907-6.564,19.075c-5.584,1.168-11.04-2.324-13.658-14.846
			c-2.619-12.522,4.175-30.499,4.175-30.499S523.226,244.248,525.845,256.769z"/>
		<path style="fill:#FFFFFF;" d="M751.037,92.303c2.619,12.522-0.98,17.908-6.564,19.075c-5.584,1.168-11.04-2.324-13.658-14.846
			c-2.619-12.522,4.175-30.499,4.175-30.499S748.418,79.782,751.037,92.303z"/>
		<path style="fill:#FFFFFF;" d="M966.879,524.075c2.619,12.522-0.98,17.907-6.564,19.075c-5.584,1.168-11.04-2.324-13.658-14.846
			c-2.619-12.522,4.175-30.499,4.175-30.499S964.26,511.553,966.879,524.075z"/>
	</g>
</g>
</svg>
